<svg width="26" height="26" viewBox="0 0 26 26" fill="none" xmlns="http://www.w3.org/2000/svg">
<g id="Group 2">
<path id="Vector" d="M10.9001 17.5143C10.6321 17.4939 10.3829 17.3692 10.2057 17.1671L6.03919 13.0006C5.94637 12.8063 5.91607 12.588 5.9525 12.3756C5.98893 12.1633 6.09028 11.9676 6.24259 11.8152C6.3949 11.6629 6.59069 11.5615 6.80298 11.5251C7.01528 11.4887 7.23366 11.519 7.42803 11.6118L10.8585 15.0422L22.7052 3.27882C22.8995 3.18599 23.118 3.1557 23.3302 3.19213C23.5425 3.22856 23.7384 3.3299 23.8906 3.48221C24.0429 3.63453 24.1443 3.83031 24.1807 4.04261C24.2171 4.25492 24.1868 4.47328 24.094 4.66765L11.5946 17.1671C11.4173 17.3692 11.168 17.4939 10.9001 17.5143Z" fill="#5D5FEF"/>
<path id="Vector_2" d="M12.9834 25.5001C10.7494 25.4965 8.55717 24.8943 6.6349 23.7561C4.71262 22.6178 3.13053 20.9853 2.05326 19.0281C1.23437 17.5698 0.728268 15.957 0.567205 14.2922C0.313021 11.8508 0.783321 9.38853 1.91943 7.21262C3.05555 5.03672 4.80718 3.24349 6.95583 2.05663C8.41413 1.23775 10.027 0.731648 11.6918 0.570585C13.3502 0.392175 15.0276 0.552835 16.6221 1.04279C16.7643 1.07122 16.8992 1.12906 17.0178 1.21263C17.1364 1.29618 17.2363 1.40361 17.311 1.52802C17.3857 1.65242 17.4336 1.79106 17.4517 1.93506C17.4696 2.07904 17.4574 2.2252 17.4156 2.36416C17.3738 2.50313 17.3033 2.63183 17.2089 2.74201C17.1145 2.8522 16.9981 2.94145 16.8672 3.00401C16.7363 3.06659 16.5936 3.10112 16.4487 3.10538C16.3037 3.10966 16.1592 3.08358 16.0249 3.02882C14.6758 2.62317 13.2593 2.49095 11.8584 2.63994C10.4738 2.78173 9.13206 3.20217 7.91413 3.876C6.74074 4.52334 5.7033 5.39101 4.8587 6.43146C3.98909 7.49136 3.33972 8.71411 2.94861 10.0281C2.55751 11.3422 2.43253 12.721 2.58101 14.0839C2.7228 15.4685 3.14325 16.8103 3.81707 18.0282C4.46441 19.2016 5.33208 20.239 6.37252 21.0836C7.43243 21.9533 8.65518 22.6026 9.9692 22.9937C11.2832 23.3847 12.662 23.5097 14.025 23.3613C15.4097 23.2195 16.7513 22.7991 17.9693 22.1252C19.1427 21.4779 20.18 20.6103 21.0247 19.5698C21.8943 18.5099 22.5437 17.2871 22.9348 15.9731C23.3259 14.6591 23.4509 13.2803 23.3024 11.9173C23.2887 11.7741 23.3034 11.6297 23.3455 11.4922C23.3877 11.3547 23.4564 11.2268 23.5481 11.1159C23.6396 11.005 23.7521 10.9132 23.8792 10.8458C24.0063 10.7783 24.1453 10.7367 24.2885 10.7229C24.4317 10.7093 24.5761 10.7239 24.7136 10.7661C24.8511 10.8082 24.979 10.8771 25.0898 10.9686C25.2008 11.0601 25.2926 11.1727 25.36 11.2997C25.4275 11.4268 25.4691 11.5658 25.4829 11.709C25.7358 14.1519 25.2634 16.6152 24.1247 18.7913C22.986 20.9673 21.2315 22.7598 19.0804 23.9446C17.6065 24.797 15.9687 25.3272 14.275 25.5001C13.8445 25.5001 13.4 25.5001 12.9834 25.5001Z" fill="#5D5FEF"/>
</g>
</svg>
